<?xml version="1.0" encoding="UTF-8"?>
<svg id="Layer_1" data-name="Layer 1" xmlns="http://www.w3.org/2000/svg" viewBox="0 0 1000 1000">
  <defs>
    <style>
      .cls-1 {
        fill: #fff8ca;
      }
    </style>
  </defs>
  <path class="cls-1" d="M343.44,656.18l-8.64-.81c-4.38-.38-7.79-1.52-9.88-3.31-2.5-2.11-4.23-4.51-5.29-7.35-1.35-3.53-2.22-7.43-2.6-11.56-.4-4.73-.59-9.2-.59-13.54l-3.25-197.92,91.25,253.13h15.09l101.76-244.39v212.34c0,4.15-.91,7.37-2.57,9.21-.4.43-1.57,1.03-2.28,1.41-.44.19-.82.41-1.65.85-.66.16-1.31.35-1.73.46l-1.38.22c-.96.16-1.94.35-3.66.5l-8.21,1.29.05,18.02,77.57.08,38.89-.08c16.59,0,32.57-2.3,47.51-6.85,15.31-4.65,28.72-11.39,39.79-20.02,11.6-8.82,20.97-20.16,27.82-33.71,6.83-13.53,10.3-29.12,10.3-46.33,0-24.46-7.35-46.66-21.84-66.02-12.29-16.37-29.66-30.29-51.71-41.44,6.58-6.5,12.49-13.6,17.63-21.21,8.08-12.14,12.17-26.58,12.17-42.9,0-11.73-2.64-22.44-7.84-31.81-4.86-8.83-11.39-16.34-19.42-22.33-7.61-5.66-16-9.9-25.71-13.01-8.97-2.68-18.03-4.04-26.92-4.04h-81.67l-3.07.08-111.35,282.34-99.81-276.06-2.19-6.28-42.53.02-9.14.77v17.8l8.74.67c10.65.87,12.79,5.45,12.79,12.49l-4.25,262.92c0,4.11-.26,8.48-.71,13.02-.53,4.27-1.48,8.24-2.81,11.79-1.16,3.02-2.83,5.43-5.25,7.56-1.93,1.69-5.23,2.8-9.56,3.18l-8.62.81v18.65h84.76v-18.65ZM591.03,522.37c9.45-9.52,19.56-17.95,30.03-25.08,9.5-6.43,19.01-13.45,28.3-20.9,7.72,3.69,14.45,8.15,20.09,13.33,7.1,6.31,12.95,13.63,17.4,21.74,4.57,8.24,8.14,17.29,10.58,26.8,2.29,9.68,3.44,19.63,3.44,29.57,0,28.1-7.41,49.47-22.02,63.5l-.02.02c-14.63,14.24-36.67,21.45-65.53,21.45h-52.81v-59.87c0-3.55.13-7.03.46-10.43.97-11.14,3.63-21.04,7.86-29.39,5.99-11.52,13.47-21.88,22.21-30.75ZM651.63,424.84c-3.55,8.86-8.16,16.83-13.8,23.82-5.47,7.27-12.19,14.27-19.99,20.85-7.63,6.48-15.45,13.02-23.26,19.56l-1.61,1.35c-8.55,7.17-17.11,14.83-25.71,22.67-2.33,2.2-4.57,4.42-6.7,6.63v-3.94l-.05.07v-168.32l41.97-.08c17.29,0,30.9,4,40.49,11.88,9.08,7.61,13.69,20.05,13.69,36.94,0,10.67-1.69,20.28-5.02,28.58Z"/>
  <polygon class="cls-1" points="244.62 192.04 218.31 156.58 218.76 156.25 259.66 180.88 264.77 177.1 253.04 130.81 253.5 130.46 279.82 165.93 285.1 162 250.46 115.33 243.72 120.33 256.61 170.85 256.06 171.26 211.45 144.29 204.7 149.29 239.34 195.97 244.62 192.04"/>
  <path class="cls-1" d="M295.96,156.04l-2.63-17.26,20.72-11.11,12.93,11.74,6.5-3.48-46.29-41.14-6.41,3.44,8.67,61.31,6.5-3.49ZM288.54,104.51l20.6,18.7-16.81,9.02-4.19-27.51.4-.21Z"/>
  <polygon class="cls-1" points="346.08 131.26 323.19 77.82 316.73 80.59 339.61 134.03 346.08 131.26"/>
  <path class="cls-1" d="M349.16,94.1c3.28,1.47,7.27,2.11,12,1.92l7.43-.32c2.12-.11,4.13-.07,6.04.09,1.9.17,3.56.65,4.97,1.47,1.41.8,2.41,2.13,3.02,3.96.67,2.01.66,3.96-.02,5.85-.7,1.89-1.92,3.6-3.67,5.1-1.75,1.51-3.9,2.68-6.46,3.54-2.19.72-4.34,1.08-6.46,1.04-2.11-.02-4.01-.51-5.69-1.45s-2.96-2.44-3.82-4.46l-6.9,2.28c1.22,2.94,3.02,5.29,5.42,7.02,2.4,1.74,5.25,2.77,8.56,3.09,3.3.32,6.93-.18,10.88-1.49,4.25-1.41,7.62-3.31,10.11-5.71,2.51-2.4,4.14-5.07,4.9-7.99.74-2.92.64-5.87-.36-8.85-.85-2.59-2.11-4.6-3.76-6.02-1.64-1.43-3.48-2.45-5.48-3.05-2.01-.6-4-.93-6-1.02-1.99-.08-3.76-.07-5.32.04l-6.1.34c-1.11.07-2.35.09-3.73.06-1.36-.04-2.72-.21-4.07-.54-1.34-.32-2.54-.89-3.6-1.7-1.06-.82-1.83-1.96-2.32-3.43-.58-1.76-.6-3.5-.05-5.23.56-1.71,1.62-3.28,3.18-4.67,1.56-1.38,3.56-2.49,6.01-3.3,3.33-1.11,6.41-1.29,9.21-.54,2.79.74,4.8,2.44,6.03,5.05l6.47-2.14c-1.02-2.76-2.7-4.95-5.05-6.61-2.35-1.64-5.12-2.65-8.3-3-3.18-.34-6.55.07-10.11,1.25-3.52,1.16-6.49,2.86-8.92,5.09-2.41,2.23-4.08,4.78-5,7.64-.91,2.86-.85,5.84.17,8.93,1.23,3.73,3.49,6.31,6.77,7.78Z"/>
  <path class="cls-1" d="M400.25,98.88c3.01,3.97,6.65,6.79,10.89,8.44,4.25,1.66,8.8,2.02,13.67,1.09,4.87-.92,8.98-2.95,12.31-6.04,3.33-3.11,5.68-7.06,7.01-11.86,1.34-4.8,1.43-10.21.28-16.24-1.15-6.02-3.23-11.01-6.24-14.98-3.02-3.97-6.64-6.79-10.88-8.44-4.25-1.66-8.81-2.02-13.68-1.09-4.86.93-8.96,2.95-12.31,6.04-3.33,3.11-5.66,7.06-7.01,11.86-1.34,4.8-1.43,10.21-.28,16.24,1.16,6.02,3.24,11.01,6.24,14.98ZM400.79,69.62c.99-3.71,2.72-6.7,5.19-8.99,2.46-2.28,5.42-3.75,8.88-4.41,3.45-.66,6.75-.38,9.88.83,3.13,1.22,5.84,3.37,8.14,6.46,2.29,3.09,3.91,7.1,4.86,12.04.95,4.94.92,9.28-.08,13-.99,3.71-2.72,6.71-5.19,8.99-2.46,2.28-5.42,3.75-8.88,4.41-3.45.66-6.74.39-9.87-.83-3.13-1.22-5.84-3.37-8.14-6.46-2.29-3.09-3.91-7.1-4.86-12.04-.93-4.94-.91-9.27.08-13Z"/>
  <polygon class="cls-1" points="464.73 101.76 462.57 56.17 463.13 56.15 496.93 100.23 503.74 99.91 500.98 41.84 494.06 42.17 496.23 87.88 495.67 87.9 461.75 43.71 454.94 44.03 457.7 102.09 464.73 101.76"/>
  <path class="cls-1" d="M567.08,103.86c3.01-.97,5.33-2.52,6.95-4.66,1.62-2.13,2.63-4.64,3.02-7.52.4-3.04.15-5.69-.77-7.95-.91-2.26-2.19-4.08-3.82-5.44-1.63-1.37-3.32-2.22-5.07-2.58l.08-.56c1.7-.22,3.34-.72,4.87-1.47,1.55-.74,2.86-1.87,3.95-3.36,1.09-1.5,1.8-3.49,2.13-5.96.38-2.82.08-5.46-.88-7.95-.97-2.49-2.66-4.6-5.08-6.33-2.41-1.73-5.63-2.86-9.65-3.41l-20.14-2.7-7.73,57.6,20.81,2.79c4.54.61,8.31.44,11.33-.53ZM548.82,51.11l13.16,1.77c3.83.51,6.5,1.77,8.03,3.78,1.53,2,2.12,4.27,1.77,6.8-.27,2.03-1.02,3.73-2.21,5.1-1.21,1.36-2.72,2.34-4.53,2.94-1.8.59-3.76.75-5.85.46l-12.94-1.73,2.57-19.13ZM545.44,76.31l14.17,1.9c2.52.34,4.62,1.14,6.33,2.39,1.7,1.24,2.94,2.77,3.71,4.56.77,1.79,1.03,3.67.77,5.62-.34,2.53-1.6,4.55-3.76,6.07-2.15,1.51-5.51,1.96-10.08,1.35l-13.84-1.86,2.7-20.03Z"/>
  <polygon class="cls-1" points="617.64 111.17 591.43 104.55 604.13 54.25 597.31 52.53 583.08 108.88 616.11 117.22 617.64 111.17"/>
  <path class="cls-1" d="M644.77,128.42c4.61,1.81,9.17,2.28,13.64,1.42,4.48-.85,8.56-2.96,12.24-6.32,3.69-3.35,6.65-7.89,8.87-13.6,2.22-5.71,3.12-11.05,2.68-16.01-.44-4.97-2.02-9.27-4.74-12.94-2.71-3.65-6.39-6.39-11-8.18-4.62-1.81-9.16-2.28-13.65-1.42-4.47.85-8.55,2.96-12.24,6.31-3.68,3.36-6.63,7.89-8.87,13.6-2.22,5.71-3.11,11.05-2.67,16.01.44,4.97,2.02,9.28,4.73,12.94,2.72,3.65,6.39,6.39,11.01,8.18ZM638.05,93.76c1.83-4.68,4.15-8.34,6.97-10.96,2.83-2.61,5.88-4.23,9.18-4.86,3.3-.61,6.59-.29,9.87.99,3.28,1.28,5.91,3.25,7.92,5.95,2.01,2.7,3.17,5.96,3.46,9.79.31,3.83-.46,8.09-2.28,12.78-1.83,4.7-4.16,8.34-6.98,10.96-2.81,2.61-5.88,4.23-9.18,4.86-3.3.61-6.59.3-9.86-.98-3.28-1.28-5.92-3.26-7.94-5.96-2-2.68-3.16-5.95-3.46-9.79-.3-3.83.46-8.09,2.29-12.78Z"/>
  <polygon class="cls-1" points="707.32 157.97 710.31 152.49 685.29 138.84 694.73 121.5 717.77 134.05 720.75 128.57 697.73 116.01 707.13 98.77 731.75 112.19 734.74 106.72 703.93 89.93 676.12 140.96 707.32 157.97"/>
  <polygon class="cls-1" points="719.95 165.77 746.24 130.28 746.69 130.62 734.99 176.92 740.1 180.7 780.99 156.03 781.44 156.36 755.15 191.85 760.44 195.77 795.05 149.07 788.3 144.06 743.71 171.08 743.15 170.67 756 120.14 749.25 115.14 714.65 161.85 719.95 165.77"/>
  <path class="cls-1" d="M862.89,291.64l-3.87-5.88c-1.9.75-3.78,1.12-5.64,1.1-1.86-.01-3.63-.34-5.31-.99-1.68-.65-3.23-1.57-4.65-2.77-1.42-1.19-2.66-2.6-3.73-4.21-1.93-2.94-2.93-6.09-3.01-9.45-.07-3.36.87-6.68,2.85-9.98,1.98-3.3,5.06-6.34,9.27-9.11,4.2-2.76,8.21-4.39,12.03-4.9,3.81-.5,7.24-.05,10.29,1.35,3.05,1.41,5.55,3.58,7.47,6.52,1.06,1.62,1.86,3.31,2.4,5.08.53,1.79.76,3.57.69,5.37-.07,1.81-.46,3.56-1.18,5.26-.71,1.7-1.8,3.29-3.26,4.74l3.87,5.89c2.21-2.08,3.9-4.35,5.09-6.81,1.18-2.45,1.89-5,2.12-7.64.22-2.64-.02-5.26-.72-7.89-.71-2.63-1.87-5.17-3.48-7.62-2.72-4.15-6.16-7.17-10.3-9.06-4.15-1.9-8.69-2.54-13.64-1.94-4.95.6-9.99,2.58-15.11,5.95-5.12,3.37-8.94,7.2-11.46,11.51-2.51,4.3-3.73,8.73-3.63,13.28.09,4.56,1.51,8.9,4.23,13.06,1.61,2.45,3.48,4.52,5.61,6.21,2.13,1.69,4.46,2.96,6.97,3.8,2.51.84,5.13,1.21,7.86,1.09,2.72-.12,5.48-.77,8.25-1.96Z"/>
  <path class="cls-1" d="M885.35,323.56c.6.6,1.16,1.33,1.8,1.81,2.63,1.94,5.43,2.96,8.43,3.06,2.99.09,6.03-.6,9.11-2.1,3.07-1.5,5.52-3.48,7.32-5.9,1.8-2.44,2.76-5.31,2.86-8.6.11-3.3-.83-6.99-2.81-11.07l-8.61-17.66-52.25,25.47,3.09,6.33,20.41-9.95,5.57,11.43c.23.47.5.78.74,1.22l-15.13,21.07,3.58,7.36,15.9-22.47ZM900.91,292.16l5.43,11.13c1.37,2.83,2.05,5.3,2.03,7.44-.02,2.14-.63,3.97-1.81,5.52-1.18,1.55-2.83,2.83-4.92,3.84-2.09,1.03-4.08,1.51-5.96,1.48-1.88-.05-3.64-.72-5.3-2.03-1.64-1.31-3.16-3.36-4.52-6.15l-5.47-11.22,20.51-10Z"/>
  <path class="cls-1" d="M872.28,353.79l17.47.19,7.62,22.24-13.68,10.86,2.39,6.99,48.07-39.04-2.35-6.87-61.91-1.35,2.39,6.98ZM924.35,354.79l-21.79,17.3-6.19-18.04,27.84.3.14.44Z"/>
  <polygon class="cls-1" points="888.62 406.66 914.04 401.21 919.32 425.86 925.43 424.54 920.14 399.91 939.34 395.78 945.17 422.98 951.29 421.67 943.98 387.6 887.14 399.78 888.62 406.66"/>
  <polygon class="cls-1" points="948.9 452.52 897.26 457.53 897.94 464.53 949.57 459.54 951.34 477.73 957.56 477.12 953.36 433.73 947.14 434.34 948.9 452.52"/>
  <polygon class="cls-1" points="899.7 490.25 899.08 525.79 905.32 525.89 905.82 497.4 925.57 497.75 925.12 523.97 931.36 524.07 931.81 497.85 951.45 498.2 950.97 526.24 957.2 526.34 957.82 491.27 899.7 490.25"/>
  <path class="cls-1" d="M896.11,552.21c-.82,5.84-.35,10.97,1.4,15.39,1.74,4.4,4.62,7.98,8.64,10.73,4.02,2.73,9.02,4.53,15.02,5.37,5.96.83,11.24.49,15.81-1.03,4.58-1.53,8.29-4.1,11.14-7.76,2.85-3.65,4.67-8.27,5.45-13.85l2.59-18.55-57.56-8.05-2.5,17.76ZM902.36,552.62l1.44-10.35,45.2,6.33-1.56,11.13c-.63,4.51-2.06,8.14-4.28,10.89-2.23,2.77-5.14,4.67-8.72,5.72-3.57,1.04-7.69,1.24-12.34.59-4.68-.65-8.62-1.99-11.79-4-3.18-2.01-5.46-4.71-6.87-8.1-1.4-3.38-1.76-7.46-1.09-12.22Z"/>
  <polygon class="cls-1" points="880.02 624.23 919.17 652.11 919.02 652.54 871.1 648.77 868.61 655.6 917.82 690.39 920.26 683.68 879.92 656.09 880.11 655.55 928.83 660.09 931.55 652.62 891.28 624.82 891.47 624.29 940.12 629.04 942.56 622.32 882.51 617.4 880.02 624.23"/>
  <polygon class="cls-1" points="856.12 681.2 908.14 707.15 911.28 700.86 859.26 674.91 856.12 681.2"/>
  <polygon class="cls-1" points="887.65 731.33 843.34 704.36 839.67 710.38 884 737.35 874.49 752.97 879.82 756.22 902.49 718.97 897.16 715.73 887.65 731.33"/>
  <polygon class="cls-1" points="821.56 737.57 841.85 753.83 822.46 778.01 802.17 761.75 797.77 767.24 843.13 803.6 847.53 798.11 827.33 781.92 846.72 757.73 866.91 773.93 871.32 768.43 825.97 732.08 821.56 737.57"/>
  <polygon class="cls-1" points="798.55 838.53 764.53 799.36 759.21 803.97 793.24 843.14 779.44 855.13 783.54 859.84 816.45 831.25 812.36 826.54 798.55 838.53"/>
  <path class="cls-1" d="M733.32,824.49l12.73,18.79-10.52,7.14c-.43.29-.7.61-1.11.91l-23.01-11.99-6.77,4.58,24.49,12.56c-.51.68-1.16,1.34-1.54,2.04-1.55,2.86-2.16,5.78-1.83,8.76.32,2.98,1.44,5.89,3.37,8.73,1.92,2.83,4.21,4.97,6.88,6.41,2.66,1.43,5.64,1.98,8.92,1.62,3.28-.37,6.79-1.81,10.55-4.36l16.26-11.02-32.62-48.11-5.82,3.95ZM752.19,874.37c-2.6,1.76-4.97,2.79-7.08,3.08-2.12.27-4.02-.06-5.72-1.02-1.69-.95-3.19-2.39-4.49-4.32-1.31-1.93-2.08-3.82-2.31-5.69-.22-1.87.19-3.71,1.25-5.53,1.06-1.82,2.89-3.6,5.45-5.35l10.34-7,12.8,18.89-10.24,6.94Z"/>
  <path class="cls-1" d="M697.51,847.74l2.3,17.32-20.92,10.72-12.71-11.99-6.56,3.37,45.49,42.01,6.47-3.31-7.51-61.47-6.56,3.36ZM703.96,899.42l-20.25-19.1,16.98-8.7,3.67,27.59-.4.2Z"/>
  <path class="cls-1" d="M637.73,875.1c-5.57,1.99-9.9,4.77-13,8.35-3.1,3.6-4.93,7.81-5.5,12.63-.57,4.84.17,10.1,2.2,15.81,2.02,5.66,4.77,10.17,8.23,13.53,3.46,3.36,7.47,5.45,12.03,6.28,4.56.84,9.5.31,14.81-1.58l17.64-6.29-19.52-54.74-16.89,6.02ZM654.83,924.09c-4.28,1.53-8.16,1.94-11.64,1.24-3.49-.7-6.52-2.39-9.11-5.07-2.58-2.68-4.66-6.23-6.24-10.65-1.58-4.46-2.22-8.55-1.92-12.3.32-3.75,1.64-7.02,4-9.84,2.35-2.8,5.8-5.01,10.32-6.63l9.84-3.5,15.33,42.99-10.58,3.77Z"/>
  <polygon class="cls-1" points="595.86 887.91 610.25 944.23 617.07 942.48 602.67 886.16 595.86 887.91"/>
  <polygon class="cls-1" points="578.14 944.61 569.61 893.44 562.67 894.58 571.2 945.77 553.16 948.77 554.19 954.93 597.19 947.76 596.18 941.6 578.14 944.61"/>
  <polygon class="cls-1" points="529.17 898.43 533.86 956.36 540.88 955.79 536.19 897.86 529.17 898.43"/>
  <path class="cls-1" d="M507.78,902.47c-3.82-2.48-8.21-3.76-13.16-3.84-4.95-.08-9.39,1.05-13.29,3.42-3.89,2.35-6.99,5.75-9.27,10.18-2.28,4.42-3.48,9.71-3.58,15.83-.09,6.14.92,11.45,3.06,15.95,2.14,4.49,5.13,7.98,8.95,10.48,3.82,2.48,8.21,3.76,13.16,3.84,4.95.08,9.38-1.06,13.28-3.42,3.9-2.37,6.99-5.76,9.28-10.18,2.28-4.43,3.48-9.71,3.57-15.85.09-6.13-.92-11.44-3.06-15.94-2.14-4.49-5.12-7.99-8.94-10.48ZM510.25,941.48c-1.73,3.44-4.03,6.02-6.91,7.76-2.87,1.73-6.08,2.57-9.59,2.51-3.52-.06-6.69-.99-9.51-2.83-2.81-1.82-5.04-4.48-6.66-7.97-1.62-3.49-2.39-7.75-2.31-12.77.08-5.04.99-9.27,2.72-12.7,1.73-3.44,4.03-6.02,6.91-7.76,2.89-1.73,6.08-2.57,9.6-2.51,3.51.05,6.68.99,9.5,2.81,2.83,1.83,5.04,4.48,6.66,7.97,1.62,3.49,2.39,7.76,2.31,12.78-.08,5.04-.98,9.27-2.72,12.7Z"/>
  <polygon class="cls-1" points="447.05 942.25 446.48 942.17 422.19 892.22 415.45 891.16 406.54 948.6 413.38 949.67 420.4 904.46 420.96 904.54 445.36 954.63 452.09 955.68 461 898.24 454.05 897.16 447.05 942.25"/>
  <path class="cls-1" d="M409.95,874.73l-4.95-1.27c-.76,1.14-1.74,2.67-2.96,4.61-1.22,1.93-2.45,4.01-3.69,6.23-1.24,2.22-2.28,4.34-3.13,6.35l-1.19,2.85,7.04,1.8,1.12-2.99c.89-2.41,1.83-4.75,2.83-7.02,1.01-2.27,1.94-4.32,2.83-6.15.87-1.82,1.58-3.3,2.12-4.41Z"/>
  <path class="cls-1" d="M358.14,874.75c-2.31-2.39-5.38-4.38-9.24-5.96-4.13-1.69-7.92-2.45-11.39-2.25-3.47.19-6.43,1.15-8.92,2.87-2.47,1.73-4.3,4.04-5.5,6.94-1.04,2.52-1.4,4.86-1.06,7.02.32,2.15,1.04,4.11,2.16,5.88,1.14,1.76,2.42,3.31,3.89,4.67,1.46,1.35,2.8,2.51,4.06,3.44l4.86,3.71c.89.67,1.84,1.47,2.85,2.39,1.02.91,1.93,1.93,2.74,3.05.8,1.12,1.35,2.33,1.62,3.64.27,1.31.11,2.67-.49,4.12-.7,1.71-1.82,3.04-3.37,3.98-1.54.95-3.36,1.43-5.45,1.48-2.09.04-4.33-.43-6.7-1.41-3.25-1.34-5.7-3.21-7.34-5.59-1.63-2.39-2.07-4.98-1.29-7.77l-6.3-2.58c-1.02,2.74-1.18,5.51-.47,8.3.71,2.78,2.15,5.35,4.34,7.69,2.2,2.34,5.03,4.22,8.49,5.64,3.43,1.41,6.79,2.06,10.07,1.94,3.29-.11,6.21-.96,8.78-2.53,2.55-1.58,4.46-3.88,5.69-6.88,1.49-3.63,1.47-7.06-.06-10.3-1.54-3.25-4.15-6.34-7.87-9.27l-5.84-4.61c-1.67-1.3-3.18-2.63-4.52-4-1.35-1.37-2.28-2.81-2.81-4.35-.54-1.53-.45-3.18.28-4.97.8-1.96,2.08-3.44,3.84-4.42,1.75-.99,3.78-1.49,6.1-1.49s4.71.51,7.19,1.53c2.14.87,4,2.02,5.58,3.42,1.58,1.4,2.71,3,3.36,4.81.66,1.81.66,3.77,0,5.88l6.73,2.76c.99-3.03,1.15-5.98.46-8.86-.7-2.89-2.19-5.52-4.48-7.92Z"/>
  <polygon class="cls-1" points="290.65 840.77 287.62 846.24 312.56 860.03 303 877.32 280.05 864.63 277.03 870.09 299.98 882.78 290.47 899.96 265.93 886.4 262.92 891.86 293.61 908.83 321.74 857.97 290.65 840.77"/>
  <path class="cls-1" d="M277.14,831.75l-13.22,18.47-10.34-7.4c-.42-.3-.82-.45-1.23-.72l3.28-25.74-6.65-4.75-3.29,27.33c-.81-.24-1.66-.62-2.44-.73-3.23-.46-6.18-.02-8.87,1.31-2.67,1.34-5.01,3.41-7,6.19-2,2.79-3.21,5.68-3.63,8.68-.43,3,.09,5.97,1.57,8.93,1.47,2.94,4.06,5.73,7.75,8.38l15.98,11.42,33.82-47.27-5.72-4.09ZM246.95,873.95l-10.06-7.2c-2.55-1.83-4.33-3.69-5.33-5.58-.99-1.88-1.34-3.8-1.04-5.71.31-1.93,1.14-3.83,2.5-5.72,1.35-1.89,2.86-3.26,4.54-4.13,1.68-.86,3.55-1.11,5.63-.74,2.07.37,4.38,1.46,6.89,3.26l10.16,7.27-13.28,18.56Z"/>
  <polygon class="cls-1" points="227.21 791.83 172.18 820.2 177.62 825.19 223.42 800.82 223.91 801.29 203.53 848.99 208.97 853.98 232.56 796.73 227.21 791.83"/>
  <polygon class="cls-1" points="184.62 745.87 179.87 749.94 198.44 771.56 183.46 784.43 166.37 764.53 161.63 768.6 178.72 788.5 163.82 801.29 145.54 780.01 140.81 784.08 163.66 810.7 207.76 772.83 184.62 745.87"/>
  <path class="cls-1" d="M169.33,724.19c-3.26-4.92-7.01-8.44-11.25-10.59-4.23-2.13-8.76-2.9-13.59-2.27-4.83.63-9.76,2.61-14.79,5.97-5.01,3.34-8.73,7.08-11.14,11.26-2.41,4.17-3.48,8.57-3.18,13.2.29,4.62,2.01,9.28,5.13,13.98l10.38,15.6,48.38-32.23-9.95-14.92ZM125.96,752.66c-2.52-3.77-3.87-7.44-4.03-10.99-.17-3.55.73-6.91,2.72-10.06,1.98-3.16,4.92-6.03,8.82-8.63,3.94-2.63,7.76-4.23,11.47-4.85,3.71-.6,7.21-.11,10.5,1.5,3.3,1.6,6.28,4.4,8.94,8.4l5.8,8.7-37.99,25.28-6.23-9.35Z"/>
  <polygon class="cls-1" points="133.53 659.73 85.74 664.93 85.57 664.52 123.87 635.47 121.18 628.72 61.29 635.44 63.94 642.08 112.42 635.88 112.63 636.4 73.22 665.41 76.16 672.78 124.72 666.78 124.93 667.31 85.43 696.09 88.08 702.74 136.21 666.48 133.53 659.73"/>
  <rect class="cls-1" x="57.36" y="609.03" width="58.12" height="7.03" transform="translate(-157.5 44.05) rotate(-15.19)"/>
  <polygon class="cls-1" points="56.6 584.73 107.64 575.44 106.39 568.53 55.33 577.81 52.07 559.82 45.92 560.95 53.73 603.84 59.86 602.72 56.6 584.73"/>
  <polygon class="cls-1" points="101.88 536.38 75.91 537.72 74.32 506.77 100.29 505.43 99.92 498.4 41.88 501.39 42.23 508.41 68.08 507.09 69.68 538.04 43.83 539.37 44.19 546.4 102.24 543.41 101.88 536.38"/>
  <path class="cls-1" d="M50.86,458.84c2.19,2.07,4.9,3.31,8.12,3.73,3.89.5,7.2-.43,9.93-2.74,2.74-2.32,5.05-5.64,6.92-9.98l2.93-6.84c.83-1.96,1.73-3.76,2.7-5.42.98-1.64,2.13-2.92,3.46-3.84,1.35-.91,2.97-1.25,4.88-1,2.11.27,3.86,1.12,5.26,2.57,1.41,1.43,2.41,3.26,3.01,5.5.6,2.24.73,4.68.39,7.34-.28,2.29-.9,4.39-1.84,6.28-.93,1.89-2.2,3.39-3.77,4.49-1.58,1.1-3.48,1.61-5.68,1.53l-.92,7.2c3.18.18,6.07-.44,8.68-1.84,2.6-1.42,4.75-3.55,6.48-6.39,1.71-2.84,2.84-6.33,3.37-10.46.56-4.43.31-8.29-.78-11.59s-2.78-5.91-5.1-7.86c-2.31-1.94-5.01-3.12-8.12-3.51-2.71-.34-5.06-.08-7.06.78-2,.87-3.7,2.08-5.11,3.63-1.41,1.54-2.58,3.19-3.51,4.95-.93,1.76-1.69,3.37-2.27,4.81l-2.33,5.65c-.43,1.04-.95,2.16-1.56,3.38-.63,1.22-1.37,2.36-2.25,3.43-.86,1.08-1.9,1.9-3.1,2.51-1.18.6-2.55.8-4.09.61-1.85-.24-3.42-.98-4.73-2.22-1.3-1.25-2.25-2.87-2.83-4.88-.59-2.01-.71-4.29-.39-6.85.45-3.49,1.61-6.34,3.5-8.54,1.88-2.2,4.27-3.29,7.17-3.26l.86-6.75c-2.92-.28-5.63.28-8.14,1.69-2.51,1.41-4.61,3.46-6.3,6.18-1.69,2.73-2.78,5.95-3.25,9.66-.47,3.68-.22,7.1.73,10.24.96,3.15,2.54,5.75,4.72,7.81Z"/>
  <polygon class="cls-1" points="61.5 392.66 111.8 405.36 113.53 398.54 63.22 385.84 67.69 368.12 61.64 366.58 50.97 408.86 57.03 410.39 61.5 392.66"/>
  <polygon class="cls-1" points="126.2 358.8 128.75 352.25 106.41 343.58 82.16 311.63 79.23 319.15 98.7 344 98.45 344.64 67.33 349.84 64.41 357.36 103.87 350.15 126.2 358.8"/>
  <polygon class="cls-1" points="155.17 297.41 149.65 294.49 137.04 318.39 91.14 294.19 87.87 300.41 139.28 327.53 155.17 297.41"/>
  <polygon class="cls-1" points="179.04 261.45 173.85 257.95 157.93 281.58 141.55 270.53 156.21 248.8 151.03 245.3 136.37 267.04 120.09 256.06 135.76 232.81 130.6 229.32 110.98 258.4 159.17 290.91 179.04 261.45"/>
  <path class="cls-1" d="M500.01,0C224.31,0,0,224.29,0,499.99s224.31,500.01,500.01,500.01,499.99-224.31,499.99-500.01S775.71,0,500.01,0ZM500.01,6.05c142.43,0,270.89,60.67,361.12,157.44l-95.29,83.84c-66.95-70.41-161.24-114.59-265.83-114.59s-198.88,44.18-265.83,114.59l-95.29-83.84C229.11,66.72,357.58,6.05,500.01,6.05ZM500.01,138.8c199.16,0,361.19,162.03,361.19,361.19s-162.03,361.19-361.19,361.19-361.19-162.03-361.19-361.19S300.84,138.8,500.01,138.8ZM500.01,993.95C227.64,993.95,6.05,772.36,6.05,499.99c0-127.76,48.76-244.34,128.65-332.12l95.4,83.94c-60.22,65.44-97.34,152.45-97.34,248.18,0,202.5,164.75,367.25,367.25,367.25s367.25-164.75,367.25-367.25c0-95.73-37.12-182.74-97.34-248.18l95.4-83.93c79.88,87.78,128.64,204.36,128.64,332.12,0,272.37-221.59,493.95-493.94,493.95Z"/>
</svg>